<svg xmlns="http://www.w3.org/2000/svg" viewBox="0 0 256 256">
  <defs>
    <linearGradient id="bg" x1="0" y1="0" x2="1" y2="1">
      <stop offset="0" stop-color="#166534"/>
      <stop offset="1" stop-color="#0f4022"/>
    </linearGradient>
    <linearGradient id="gold" x1="0" y1="0" x2="1" y2="1">
      <stop offset="0" stop-color="#fde68a"/>
      <stop offset="1" stop-color="#facc15"/>
    </linearGradient>
    <filter id="shadow" x="-20%" y="-20%" width="140%" height="140%">
      <feDropShadow dx="0" dy="10" stdDeviation="10" flood-color="#000" flood-opacity=".35"/>
    </filter>
  </defs>

  <rect width="256" height="256" rx="64" fill="url(#bg)"/>

  <!-- Crown -->
  <g filter="url(#shadow)">
    <path
      d="M64 112l28 26 36-52 36 52 28-26 16 64H48l16-64z"
      fill="url(#gold)"
      stroke="rgba(255,255,255,.22)"
      stroke-width="6"
      stroke-linejoin="round"
    />
    <rect x="56" y="168" width="144" height="20" rx="10" fill="url(#gold)" opacity=".95"/>
  </g>

  <!-- Q -->
  <g opacity=".96">
    <path
      d="M128 78c-29 0-52 23-52 52s23 52 52 52c8.8 0 17.1-2.1 24.3-5.9l17.7 17.7 12.7-12.7-17.3-17.3C177.7 156.8 180 148.7 180 130c0-29-23-52-52-52zm0 24c15.5 0 28 12.5 28 28s-12.5 28-28 28-28-12.5-28-28 12.5-28 28-28z"
      fill="rgba(255,255,255,.92)"
    />
  </g>
</svg>

